<svg width="24" height="24" viewBox="0 0 24 24" fill="none" xmlns="http://www.w3.org/2000/svg">
<g clip-path="url(#clip0_307_11365)">
<path d="M1.1917 6.78274C0.428852 8.36037 0.000976562 10.1303 0.000976562 12.0001C0.000976562 13.87 0.428852 15.6399 1.1917 17.2175L12.001 18.261L22.8103 17.2175C23.5731 15.6399 24.001 13.87 24.001 12.0001C24.001 10.1303 23.5731 8.36037 22.8103 6.78274L12.001 5.73926L1.1917 6.78274Z" fill="#F0F0F0"/>
<path d="M1.19336 17.2173C3.13431 21.2312 7.24473 23.9999 12.0022 23.9999C16.7597 23.9999 20.8702 21.2312 22.8111 17.2173H1.19336Z" fill="#6DA544"/>
<path d="M1.19336 6.78263H22.8111C20.8702 2.76872 16.7597 0 12.0022 0C7.24473 0 3.13431 2.76872 1.19336 6.78263Z" fill="#D80027"/>
<path d="M9.91309 15.1307H14.087V13.3568L13.2522 13.7741L12.0001 12.522L10.7479 13.7741L9.91309 13.3568V15.1307Z" fill="#FFDA44"/>
<path d="M7.52504 13.0439L7.71934 13.6418H8.34793L7.83934 14.0113L8.03363 14.6091L7.52504 14.2397L7.01645 14.6091L7.21074 14.0113L6.70215 13.6418H7.33074L7.52504 13.0439Z" fill="#FFDA44"/>
<path d="M8.12758 10.957L8.32187 11.5549H8.95047L8.44187 11.9244L8.63612 12.5222L8.12758 12.1528L7.61898 12.5222L7.81328 11.9244L7.30469 11.5549H7.93328L8.12758 10.957Z" fill="#FFDA44"/>
<path d="M9.84926 9.3916L10.0436 9.98945H10.6721L10.1636 10.359L10.3578 10.9568L9.84926 10.5873L9.34071 10.9568L9.53496 10.359L9.02637 9.98945H9.65501L9.84926 9.3916Z" fill="#FFDA44"/>
<path d="M16.4752 13.0439L16.2809 13.6418H15.6523L16.1609 14.0113L15.9666 14.6091L16.4752 14.2397L16.9838 14.6091L16.7895 14.0113L17.2981 13.6418H16.6695L16.4752 13.0439Z" fill="#FFDA44"/>
<path d="M15.8727 10.957L15.6784 11.5549H15.0498L15.5584 11.9244L15.3641 12.5222L15.8727 12.1528L16.3813 12.5222L16.187 11.9244L16.6956 11.5549H16.067L15.8727 10.957Z" fill="#FFDA44"/>
<path d="M14.151 9.3916L13.9567 9.98945H13.3281L13.8366 10.359L13.6424 10.9568L14.151 10.5873L14.6595 10.9568L14.4653 10.359L14.9738 9.98945H14.3452L14.151 9.3916Z" fill="#FFDA44"/>
<path d="M12.0006 8.60889L12.1949 9.20673H12.8235L12.3149 9.57625L12.5092 10.1741L12.0006 9.80462L11.492 10.1741L11.6863 9.57625L11.1777 9.20673H11.8063L12.0006 8.60889Z" fill="#FFDA44"/>
</g>
<defs>
<clipPath id="clip0_307_11365">
<rect width="24" height="24" fill="white" transform="translate(0.000976562)"/>
</clipPath>
</defs>
</svg>
