<svg width="24" height="24" viewBox="0 0 24 24" fill="none" xmlns="http://www.w3.org/2000/svg">
<g clip-path="url(#clip0_307_11673)">
<path d="M12.001 24C18.6284 24 24.001 18.6274 24.001 12C24.001 5.37258 18.6284 0 12.001 0C5.37356 0 0.000976562 5.37258 0.000976562 12C0.000976562 18.6274 5.37356 24 12.001 24Z" fill="#F0F0F0"/>
<path d="M2.48032 4.69434C1.53771 5.92073 0.826945 7.33424 0.413086 8.86982H6.6558L2.48032 4.69434Z" fill="#0052B4"/>
<path d="M23.5864 8.86977C23.1725 7.33424 22.4617 5.92073 21.5191 4.69434L17.3438 8.86977H23.5864Z" fill="#0052B4"/>
<path d="M0.413086 15.1309C0.826992 16.6664 1.53776 18.0799 2.48032 19.3063L6.65566 15.1309H0.413086Z" fill="#0052B4"/>
<path d="M19.3063 2.48086C18.0799 1.53825 16.6664 0.82748 15.1309 0.413574V6.65625L19.3063 2.48086Z" fill="#0052B4"/>
<path d="M4.69434 21.5196C5.92073 22.4622 7.33424 23.173 8.86977 23.5869V17.3442L4.69434 21.5196Z" fill="#0052B4"/>
<path d="M8.86973 0.413574C7.33419 0.82748 5.92068 1.53825 4.69434 2.48081L8.86973 6.6562V0.413574Z" fill="#0052B4"/>
<path d="M15.1309 23.5869C16.6664 23.173 18.0799 22.4622 19.3063 21.5196L15.1309 17.3442V23.5869Z" fill="#0052B4"/>
<path d="M17.3438 15.1309L21.5191 19.3063C22.4617 18.08 23.1725 16.6664 23.5864 15.1309H17.3438Z" fill="#0052B4"/>
<path d="M23.8994 10.4348H13.5663H13.5662V0.101578C13.0538 0.034875 12.5315 0 12.001 0C11.4704 0 10.9481 0.034875 10.4358 0.101578V10.4347V10.4347H0.102555C0.0358516 10.9471 0.000976562 11.4695 0.000976562 12C0.000976562 12.5306 0.0358516 13.0529 0.102555 13.5652H10.4357H10.4357V23.8984C10.9481 23.9651 11.4704 24 12.001 24C12.5315 24 13.0538 23.9652 13.5662 23.8984V13.5653V13.5653H23.8994C23.9661 13.0529 24.001 12.5306 24.001 12C24.001 11.4695 23.9661 10.9471 23.8994 10.4348Z" fill="#D80027"/>
<path d="M15.1318 15.1304L20.4866 20.4852C20.7329 20.239 20.9679 19.9817 21.192 19.7148L16.6076 15.1304H15.1318V15.1304Z" fill="#D80027"/>
<path d="M8.86951 15.1304H8.86941L3.51465 20.4851C3.76084 20.7314 4.01823 20.9664 4.28504 21.1905L8.86951 16.6059V15.1304Z" fill="#D80027"/>
<path d="M8.87073 8.8696V8.86951L3.51592 3.51465C3.26964 3.76084 3.0347 4.01823 2.81055 4.28504L7.39506 8.86955H8.87073V8.8696Z" fill="#D80027"/>
<path d="M15.1318 8.8698L20.4867 3.5149C20.2405 3.26862 19.9831 3.03368 19.7163 2.80957L15.1318 7.39409V8.8698Z" fill="#D80027"/>
</g>
<defs>
<clipPath id="clip0_307_11673">
<rect width="24" height="24" fill="white" transform="translate(0.000976562)"/>
</clipPath>
</defs>
</svg>
