<svg width="149" height="183" viewBox="0 0 149 183" fill="none" xmlns="http://www.w3.org/2000/svg">
<path fill-rule="evenodd" clip-rule="evenodd" d="M52.7103 93.0642C48.7972 93.6121 44.8365 92.6485 41.0705 89.6369C29.4209 80.3201 27.9274 67.4175 31.7094 54.3729C37.2324 35.3256 54.1652 15.9935 66.0946 7.8094C66.6592 7.42109 67.4196 7.59676 67.7915 8.19726C68.1663 8.79893 68.0127 9.60135 67.4481 9.98966C55.8691 17.9322 39.4151 36.6774 34.0537 55.1626C30.5814 67.1403 31.8347 79.0216 42.5357 87.5774C45.7189 90.1261 49.0637 90.9274 52.3736 90.4733C52.098 88.179 51.8873 85.9075 51.7434 83.663C51.3476 77.4673 53.1413 61.4377 58.2004 51.1665C61.8314 43.7996 67.133 39.3969 74.2337 42.5048C78.1801 44.2333 80.1433 48.0135 80.4427 52.8836C80.8581 59.5788 78.0469 68.4391 73.3833 76.1301C69.5015 82.5342 64.3498 88.1203 58.8103 91.0249C57.5916 91.6606 56.356 92.1745 55.1095 92.5409C59.5019 124.292 76.189 159.08 98.5556 179.965C99.0635 180.443 99.1201 181.26 98.6733 181.794C98.2295 182.329 97.4544 182.374 96.9453 181.899C74.2154 160.672 57.2336 125.356 52.7103 93.0642ZM54.7745 89.9261C54.52 87.7694 54.3248 85.6332 54.1904 83.5216C53.8129 77.5844 55.5315 62.2286 60.3792 52.3877C63.3534 46.348 67.5015 42.3495 73.3211 44.8964C76.3768 46.2359 77.7619 49.2483 77.9979 53.0189C78.2534 57.1669 77.1386 62.1925 75.0967 67.205C71.9968 74.815 66.7512 82.3888 60.7117 86.8061C58.799 88.2066 56.8043 89.2844 54.7745 89.9261Z" fill="#B9F250"/>
<path fill-rule="evenodd" clip-rule="evenodd" d="M91.9498 132.06C89.2542 147.215 92.7556 165.935 98.5855 180.277C98.8537 180.937 98.5664 181.696 97.9456 181.97C97.3249 182.245 96.6021 181.935 96.3339 181.275C90.3202 166.485 86.7619 147.174 89.5399 131.55C89.6637 130.851 90.3049 130.396 90.9713 130.537C91.6349 130.677 92.0736 131.36 91.9498 132.06Z" fill="#B9F250"/>
<path fill-rule="evenodd" clip-rule="evenodd" d="M96.0957 181.471C88.2784 171.497 73.358 164.508 61.2063 163.032C60.5321 162.95 60.0391 162.307 60.1104 161.597C60.1788 160.886 60.7795 160.376 61.4537 160.458C74.1839 162.005 89.7854 169.384 97.9755 179.834C98.4106 180.387 98.3409 181.206 97.8233 181.658C97.3028 182.11 96.5297 182.027 96.0957 181.471Z" fill="#B9F250"/>
</svg>
