<svg width="88" height="88" viewBox="0 0 88 88" fill="none" xmlns="http://www.w3.org/2000/svg">
<g filter="url(#filter0_d_727_24353)">
<rect x="12" y="8" width="64" height="64" rx="32" fill="white"/>
<g clip-path="url(#clip0_727_24353)">
<path d="M40.1812 30.2952L42.7316 31.6389L44.0495 38.6377L45.9375 31.7638L48.5972 30.6294V30.626L47.6856 25.7644L44.6504 24.1641L41.4922 25.5145L40.1812 30.2952Z" fill="url(#paint0_linear_727_24353)"/>
<path d="M40.0174 30.8894L39.3721 33.2392L43.4521 38.7457L42.1854 32.0339L40.0174 30.8894Z" fill="url(#paint1_linear_727_24353)"/>
<path d="M49.1709 30.383L53.9064 28.3573L56.7675 29.8665L56.0642 26.1021L48.9216 22.3376L45.364 23.8569L48.232 25.3694L49.1709 30.383Z" fill="url(#paint2_linear_727_24353)"/>
<path d="M33.7489 37.6384L29.1533 39.6067L28.2554 42.8917L30.2903 45.6332L35.2853 45.8324L36.0466 43.0639L42.6566 40.2347H42.6532L35.4594 39.9443L33.7489 37.6384Z" fill="url(#paint3_linear_727_24353)"/>
<path d="M33.9535 36.8957L36.6064 35.7579L42.9637 39.1037L38.7062 33.3609L39.4675 30.5992L35.0427 28.2764L31.8914 29.6235L30.9934 32.8983L33.9535 36.8957Z" fill="url(#paint4_linear_727_24353)"/>
<path d="M39.628 30.0049L40.98 25.0791L43.9641 23.8029L40.543 22L33.1136 25.177L32.0962 28.8806L35.0666 27.6078L39.628 30.0049Z" fill="url(#paint5_linear_727_24353)"/>
<path d="M52.2027 46.5042L57.2011 46.7034L59.4545 44.1307L58.8263 40.7883L54.4083 38.4622L52.5134 40.6297L45.3162 40.3393L51.67 43.6885L52.2027 46.5042Z" fill="url(#paint6_linear_727_24353)"/>
<path d="M49.2835 30.9908L49.8127 33.8065L45.0977 39.1881L51.7076 36.3589L54.2683 37.7059L57.5425 33.9685L56.9109 30.6228L53.8791 29.0225L49.2835 30.9908Z" fill="url(#paint7_linear_727_24353)"/>
<path d="M51.6803 37.0273L45.3401 39.7384L52.2437 40.0186L53.8586 38.1719L51.6803 37.0273Z" fill="url(#paint8_linear_727_24353)"/>
<path d="M48.7099 31.2339L46.4497 32.2028L44.6367 38.7965L49.1606 33.6343L48.7099 31.2339Z" fill="url(#paint9_linear_727_24353)"/>
<path d="M49.1127 46.3827L51.5812 46.4806L51.1271 44.0801L45.0293 40.8694L49.1127 46.3827Z" fill="url(#paint10_linear_727_24353)"/>
<path d="M42.134 47.9322L43.5919 49.9005L45.2068 48.0538L43.9402 41.3352L42.134 47.9322Z" fill="url(#paint11_linear_727_24353)"/>
<path d="M51.6939 47.0883L48.7987 46.9701L44.5377 41.2273H44.5411H44.5377L45.859 48.2261L43.9607 50.3969L46.9208 54.3842L50.359 54.5192L52.6124 51.9466L51.6939 47.0883Z" fill="url(#paint12_linear_727_24353)"/>
<path d="M57.4674 47.3144L52.3188 47.1119L53.2645 52.1221L51.1375 54.5529L55.0092 54.7082L60.3081 48.6548L59.5979 44.887L57.4674 47.3144Z" fill="url(#paint13_linear_727_24353)"/>
<path d="M42.6769 39.6336L36.5791 36.4263L34.3223 37.3919L35.7767 39.3568L42.6769 39.6336Z" fill="url(#paint14_linear_727_24353)"/>
<path d="M54.8179 37.9962L59.369 40.3932L59.9631 43.55L62.4999 40.6532L61.0215 32.7834L57.5971 30.9839L58.1911 34.144L54.8179 37.9962Z" fill="url(#paint15_linear_727_24353)"/>
<path d="M43.5545 50.8628L40.1813 54.7184L36.9343 54.5901L39.2287 57.6793L47.3136 58L49.8504 55.1033L46.6034 54.975L43.5545 50.8628Z" fill="url(#paint16_linear_727_24353)"/>
<path d="M28.6411 39.1712L33.38 37.1421L30.3277 33.0199L31.1779 29.9307L27.6134 31.4567L25.5 39.1847L27.7944 42.2705L28.6411 39.1712Z" fill="url(#paint17_linear_727_24353)"/>
<path d="M42.8954 40.7849L36.5552 43.5027L35.9099 45.8559L38.375 45.9538L42.8954 40.7849Z" fill="url(#paint18_linear_727_24353)"/>
<path d="M43.1857 50.3665L41.4718 48.0538L43.353 41.1799L38.6448 46.5649L35.7461 46.4501L34.4385 51.224L36.4734 53.9688L39.9149 54.1073L43.1857 50.3665Z" fill="url(#paint19_linear_727_24353)"/>
<path d="M35.1247 46.4266L29.9726 46.224L28.0504 43.6345L27.0364 47.3348L31.8231 53.7833L35.6983 53.9386L33.7761 51.349L35.1247 46.4266Z" fill="url(#paint20_linear_727_24353)"/>
</g>
</g>
<defs>
<filter id="filter0_d_727_24353" x="0" y="0" width="88" height="88" filterUnits="userSpaceOnUse" color-interpolation-filters="sRGB">
<feFlood flood-opacity="0" result="BackgroundImageFix"/>
<feColorMatrix in="SourceAlpha" type="matrix" values="0 0 0 0 0 0 0 0 0 0 0 0 0 0 0 0 0 0 127 0" result="hardAlpha"/>
<feOffset dy="4"/>
<feGaussianBlur stdDeviation="6"/>
<feColorMatrix type="matrix" values="0 0 0 0 0 0 0 0 0 0 0 0 0 0 0 0 0 0 0.08 0"/>
<feBlend mode="normal" in2="BackgroundImageFix" result="effect1_dropShadow_727_24353"/>
<feBlend mode="normal" in="SourceGraphic" in2="effect1_dropShadow_727_24353" result="shape"/>
</filter>
<linearGradient id="paint0_linear_727_24353" x1="41.6137" y1="41.6171" x2="59.2324" y2="33.125" gradientUnits="userSpaceOnUse">
<stop stop-color="#FF006E"/>
<stop offset="1" stop-color="#FFBE0B"/>
</linearGradient>
<linearGradient id="paint1_linear_727_24353" x1="40.0666" y1="40.363" x2="48.9466" y2="36.5403" gradientUnits="userSpaceOnUse">
<stop stop-color="#FF006E"/>
<stop offset="1" stop-color="#FFBE0B"/>
</linearGradient>
<linearGradient id="paint2_linear_727_24353" x1="47.3051" y1="32.0392" x2="59.6639" y2="17.5188" gradientUnits="userSpaceOnUse">
<stop stop-color="#FF006E"/>
<stop offset="1" stop-color="#FFBE0B"/>
</linearGradient>
<linearGradient id="paint3_linear_727_24353" x1="30.7067" y1="47.5191" x2="42.6053" y2="30.1846" gradientUnits="userSpaceOnUse">
<stop stop-color="#FF006E"/>
<stop offset="1" stop-color="#FFBE0B"/>
</linearGradient>
<linearGradient id="paint4_linear_727_24353" x1="33.0309" y1="41.3325" x2="49.8158" y2="25.9507" gradientUnits="userSpaceOnUse">
<stop stop-color="#FF006E"/>
<stop offset="1" stop-color="#FFBE0B"/>
</linearGradient>
<linearGradient id="paint5_linear_727_24353" x1="34.1163" y1="31.6527" x2="46.3129" y2="16.6639" gradientUnits="userSpaceOnUse">
<stop stop-color="#FF006E"/>
<stop offset="1" stop-color="#FFBE0B"/>
</linearGradient>
<linearGradient id="paint6_linear_727_24353" x1="47.7227" y1="48.3998" x2="59.7913" y2="31.2377" gradientUnits="userSpaceOnUse">
<stop stop-color="#FF006E"/>
<stop offset="1" stop-color="#FFBE0B"/>
</linearGradient>
<linearGradient id="paint7_linear_727_24353" x1="47.216" y1="41.2807" x2="63.0334" y2="25.2298" gradientUnits="userSpaceOnUse">
<stop stop-color="#FF006E"/>
<stop offset="1" stop-color="#FFBE0B"/>
</linearGradient>
<linearGradient id="paint8_linear_727_24353" x1="46.7901" y1="40.6344" x2="50.1338" y2="32.7412" gradientUnits="userSpaceOnUse">
<stop stop-color="#FF006E"/>
<stop offset="1" stop-color="#FFBE0B"/>
</linearGradient>
<linearGradient id="paint9_linear_727_24353" x1="45.4068" y1="40.3533" x2="54.7743" y2="35.7084" gradientUnits="userSpaceOnUse">
<stop stop-color="#FF006E"/>
<stop offset="1" stop-color="#FFBE0B"/>
</linearGradient>
<linearGradient id="paint10_linear_727_24353" x1="46.1445" y1="47.6356" x2="54.8716" y2="39.1888" gradientUnits="userSpaceOnUse">
<stop stop-color="#FF006E"/>
<stop offset="1" stop-color="#FFBE0B"/>
</linearGradient>
<linearGradient id="paint11_linear_727_24353" x1="42.6571" y1="51.6637" x2="49.9403" y2="49.4979" gradientUnits="userSpaceOnUse">
<stop stop-color="#FF006E"/>
<stop offset="1" stop-color="#FFBE0B"/>
</linearGradient>
<linearGradient id="paint12_linear_727_24353" x1="45.4333" y1="57.2554" x2="62.7206" y2="47.9283" gradientUnits="userSpaceOnUse">
<stop stop-color="#FF006E"/>
<stop offset="1" stop-color="#FFBE0B"/>
</linearGradient>
<linearGradient id="paint13_linear_727_24353" x1="52.6984" y1="56.7299" x2="67.4935" y2="45.2786" gradientUnits="userSpaceOnUse">
<stop stop-color="#FF006E"/>
<stop offset="1" stop-color="#FFBE0B"/>
</linearGradient>
<linearGradient id="paint14_linear_727_24353" x1="35.7444" y1="40.2939" x2="39.551" y2="32.0747" gradientUnits="userSpaceOnUse">
<stop stop-color="#FF006E"/>
<stop offset="1" stop-color="#FFBE0B"/>
</linearGradient>
<linearGradient id="paint15_linear_727_24353" x1="56.1255" y1="46.1367" x2="71.8944" y2="38.146" gradientUnits="userSpaceOnUse">
<stop stop-color="#FF006E"/>
<stop offset="1" stop-color="#FFBE0B"/>
</linearGradient>
<linearGradient id="paint16_linear_727_24353" x1="39.1328" y1="59.4692" x2="49.3848" y2="44.0906" gradientUnits="userSpaceOnUse">
<stop stop-color="#FF006E"/>
<stop offset="1" stop-color="#FFBE0B"/>
</linearGradient>
<linearGradient id="paint17_linear_727_24353" x1="26.8413" y1="44.8107" x2="42.7209" y2="36.4051" gradientUnits="userSpaceOnUse">
<stop stop-color="#FF006E"/>
<stop offset="1" stop-color="#FFBE0B"/>
</linearGradient>
<linearGradient id="paint18_linear_727_24353" x1="37.099" y1="47.0178" x2="45.0909" y2="38.065" gradientUnits="userSpaceOnUse">
<stop stop-color="#FF006E"/>
<stop offset="1" stop-color="#FFBE0B"/>
</linearGradient>
<linearGradient id="paint19_linear_727_24353" x1="35.9559" y1="56.7684" x2="53.29" y2="46.86" gradientUnits="userSpaceOnUse">
<stop stop-color="#FF006E"/>
<stop offset="1" stop-color="#FFBE0B"/>
</linearGradient>
<linearGradient id="paint20_linear_727_24353" x1="28.5108" y1="56.0597" x2="43.5531" y2="45.578" gradientUnits="userSpaceOnUse">
<stop stop-color="#FF006E"/>
<stop offset="1" stop-color="#FFBE0B"/>
</linearGradient>
<clipPath id="clip0_727_24353">
<rect width="37" height="36" fill="white" transform="translate(25.5 22)"/>
</clipPath>
</defs>
</svg>
