<svg width="38" height="36" viewBox="0 0 38 36" fill="none" xmlns="http://www.w3.org/2000/svg">
<g clip-path="url(#clip0_684_24354)">
<path d="M15.1812 8.29517L17.7316 9.63888L19.0495 16.6377L20.9375 9.7638L23.5972 8.62941V8.62603L22.6856 3.76436L19.6504 2.16406L16.4922 3.51453L15.1812 8.29517Z" fill="url(#paint0_linear_684_24354)"/>
<path d="M15.0174 8.8894L14.3721 11.2392L18.4521 16.7457L17.1854 10.0339L15.0174 8.8894Z" fill="url(#paint1_linear_684_24354)"/>
<path d="M24.1709 8.38304L28.9064 6.35734L31.7675 7.86649L31.0642 4.10207L23.9216 0.337646L20.364 1.85692L23.232 3.36944L24.1709 8.38304Z" fill="url(#paint2_linear_684_24354)"/>
<path d="M8.74887 15.6384L4.15331 17.6067L3.25537 20.8917L5.29025 23.6332L10.2853 23.8324L11.0466 21.0639L17.6566 18.2347H17.6532L10.4594 17.9443L8.74887 15.6384Z" fill="url(#paint3_linear_684_24354)"/>
<path d="M8.95354 14.8957L11.6064 13.7579L17.9637 17.1037L13.7062 11.3609L14.4675 8.59917L10.0427 6.27637L6.89135 7.62346L5.99341 10.8983L8.95354 14.8957Z" fill="url(#paint4_linear_684_24354)"/>
<path d="M14.628 8.00488L15.98 3.07906L18.9641 1.80287L15.543 0L8.11363 3.17697L7.09619 6.88061L10.0666 5.6078L14.628 8.00488Z" fill="url(#paint5_linear_684_24354)"/>
<path d="M27.2027 24.5042L32.2011 24.7034L34.4545 22.1307L33.8263 18.7883L29.4083 16.4622L27.5134 18.6297L20.3162 18.3393L26.67 21.6885L27.2027 24.5042Z" fill="url(#paint6_linear_684_24354)"/>
<path d="M24.2835 8.99076L24.8127 11.8065L20.0977 17.1881L26.7076 14.3589L29.2683 15.7059L32.5425 11.9685L31.9109 8.62276L28.8791 7.02246L24.2835 8.99076Z" fill="url(#paint7_linear_684_24354)"/>
<path d="M26.6803 15.0273L20.3401 17.7384L27.2437 18.0186L28.8586 16.1719L26.6803 15.0273Z" fill="url(#paint8_linear_684_24354)"/>
<path d="M23.7099 9.23389L21.4497 10.2028L19.6367 16.7965L24.1606 11.6343L23.7099 9.23389Z" fill="url(#paint9_linear_684_24354)"/>
<path d="M24.1127 24.3827L26.5812 24.4806L26.1271 22.0801L20.0293 18.8694L24.1127 24.3827Z" fill="url(#paint10_linear_684_24354)"/>
<path d="M17.134 25.9322L18.5919 27.9005L20.2068 26.0538L18.9402 19.3352L17.134 25.9322Z" fill="url(#paint11_linear_684_24354)"/>
<path d="M26.6939 25.0883L23.7987 24.9701L19.5377 19.2273H19.5411H19.5377L20.859 26.2261L18.9607 28.3969L21.9208 32.3842L25.359 32.5192L27.6124 29.9466L26.6939 25.0883Z" fill="url(#paint12_linear_684_24354)"/>
<path d="M32.4674 25.3144L27.3188 25.1119L28.2645 30.1221L26.1375 32.5529L30.0092 32.7082L35.3081 26.6548L34.5979 22.887L32.4674 25.3144Z" fill="url(#paint13_linear_684_24354)"/>
<path d="M17.6769 17.6336L11.5791 14.4263L9.32227 15.3919L10.7767 17.3568L17.6769 17.6336Z" fill="url(#paint14_linear_684_24354)"/>
<path d="M29.8179 15.9962L34.369 18.3932L34.9631 21.55L37.4999 18.6532L36.0215 10.7834L32.5971 8.98389L33.1911 12.144L29.8179 15.9962Z" fill="url(#paint15_linear_684_24354)"/>
<path d="M18.5545 28.8628L15.1813 32.7184L11.9343 32.5901L14.2287 35.6793L22.3136 36L24.8504 33.1033L21.6034 32.975L18.5545 28.8628Z" fill="url(#paint16_linear_684_24354)"/>
<path d="M3.64109 17.1712L8.38004 15.1421L5.32772 11.0199L6.17786 7.93066L2.61341 9.45669L0.5 17.1847L2.79436 20.2705L3.64109 17.1712Z" fill="url(#paint17_linear_684_24354)"/>
<path d="M17.8954 18.7849L11.5552 21.5027L10.9099 23.8559L13.375 23.9538L17.8954 18.7849Z" fill="url(#paint18_linear_684_24354)"/>
<path d="M18.1857 28.3665L16.4718 26.0538L18.353 19.1799L13.6448 24.5649L10.7461 24.4501L9.43848 29.224L11.4734 31.9688L14.9149 32.1073L18.1857 28.3665Z" fill="url(#paint19_linear_684_24354)"/>
<path d="M10.1247 24.4266L4.97261 24.224L3.0504 21.6345L2.03638 25.3348L6.82313 31.7833L10.6983 31.9386L8.77607 29.349L10.1247 24.4266Z" fill="url(#paint20_linear_684_24354)"/>
</g>
<defs>
<linearGradient id="paint0_linear_684_24354" x1="16.6137" y1="19.6171" x2="34.2324" y2="11.125" gradientUnits="userSpaceOnUse">
<stop stop-color="#FF006E"/>
<stop offset="1" stop-color="#FFBE0B"/>
</linearGradient>
<linearGradient id="paint1_linear_684_24354" x1="15.0666" y1="18.363" x2="23.9466" y2="14.5403" gradientUnits="userSpaceOnUse">
<stop stop-color="#FF006E"/>
<stop offset="1" stop-color="#FFBE0B"/>
</linearGradient>
<linearGradient id="paint2_linear_684_24354" x1="22.3051" y1="10.0392" x2="34.6639" y2="-4.48121" gradientUnits="userSpaceOnUse">
<stop stop-color="#FF006E"/>
<stop offset="1" stop-color="#FFBE0B"/>
</linearGradient>
<linearGradient id="paint3_linear_684_24354" x1="5.70669" y1="25.5191" x2="17.6053" y2="8.18464" gradientUnits="userSpaceOnUse">
<stop stop-color="#FF006E"/>
<stop offset="1" stop-color="#FFBE0B"/>
</linearGradient>
<linearGradient id="paint4_linear_684_24354" x1="8.03094" y1="19.3325" x2="24.8158" y2="3.95067" gradientUnits="userSpaceOnUse">
<stop stop-color="#FF006E"/>
<stop offset="1" stop-color="#FFBE0B"/>
</linearGradient>
<linearGradient id="paint5_linear_684_24354" x1="9.11629" y1="9.65269" x2="21.3129" y2="-5.33608" gradientUnits="userSpaceOnUse">
<stop stop-color="#FF006E"/>
<stop offset="1" stop-color="#FFBE0B"/>
</linearGradient>
<linearGradient id="paint6_linear_684_24354" x1="22.7227" y1="26.3998" x2="34.7913" y2="9.23767" gradientUnits="userSpaceOnUse">
<stop stop-color="#FF006E"/>
<stop offset="1" stop-color="#FFBE0B"/>
</linearGradient>
<linearGradient id="paint7_linear_684_24354" x1="22.216" y1="19.2807" x2="38.0334" y2="3.22976" gradientUnits="userSpaceOnUse">
<stop stop-color="#FF006E"/>
<stop offset="1" stop-color="#FFBE0B"/>
</linearGradient>
<linearGradient id="paint8_linear_684_24354" x1="21.7901" y1="18.6344" x2="25.1338" y2="10.7412" gradientUnits="userSpaceOnUse">
<stop stop-color="#FF006E"/>
<stop offset="1" stop-color="#FFBE0B"/>
</linearGradient>
<linearGradient id="paint9_linear_684_24354" x1="20.4068" y1="18.3533" x2="29.7743" y2="13.7084" gradientUnits="userSpaceOnUse">
<stop stop-color="#FF006E"/>
<stop offset="1" stop-color="#FFBE0B"/>
</linearGradient>
<linearGradient id="paint10_linear_684_24354" x1="21.1445" y1="25.6356" x2="29.8716" y2="17.1888" gradientUnits="userSpaceOnUse">
<stop stop-color="#FF006E"/>
<stop offset="1" stop-color="#FFBE0B"/>
</linearGradient>
<linearGradient id="paint11_linear_684_24354" x1="17.6571" y1="29.6637" x2="24.9403" y2="27.4979" gradientUnits="userSpaceOnUse">
<stop stop-color="#FF006E"/>
<stop offset="1" stop-color="#FFBE0B"/>
</linearGradient>
<linearGradient id="paint12_linear_684_24354" x1="20.4333" y1="35.2554" x2="37.7206" y2="25.9283" gradientUnits="userSpaceOnUse">
<stop stop-color="#FF006E"/>
<stop offset="1" stop-color="#FFBE0B"/>
</linearGradient>
<linearGradient id="paint13_linear_684_24354" x1="27.6984" y1="34.7299" x2="42.4935" y2="23.2786" gradientUnits="userSpaceOnUse">
<stop stop-color="#FF006E"/>
<stop offset="1" stop-color="#FFBE0B"/>
</linearGradient>
<linearGradient id="paint14_linear_684_24354" x1="10.7444" y1="18.2939" x2="14.551" y2="10.0747" gradientUnits="userSpaceOnUse">
<stop stop-color="#FF006E"/>
<stop offset="1" stop-color="#FFBE0B"/>
</linearGradient>
<linearGradient id="paint15_linear_684_24354" x1="31.1255" y1="24.1367" x2="46.8944" y2="16.146" gradientUnits="userSpaceOnUse">
<stop stop-color="#FF006E"/>
<stop offset="1" stop-color="#FFBE0B"/>
</linearGradient>
<linearGradient id="paint16_linear_684_24354" x1="14.1328" y1="37.4692" x2="24.3848" y2="22.0906" gradientUnits="userSpaceOnUse">
<stop stop-color="#FF006E"/>
<stop offset="1" stop-color="#FFBE0B"/>
</linearGradient>
<linearGradient id="paint17_linear_684_24354" x1="1.84131" y1="22.8107" x2="17.7209" y2="14.4051" gradientUnits="userSpaceOnUse">
<stop stop-color="#FF006E"/>
<stop offset="1" stop-color="#FFBE0B"/>
</linearGradient>
<linearGradient id="paint18_linear_684_24354" x1="12.099" y1="25.0178" x2="20.0909" y2="16.065" gradientUnits="userSpaceOnUse">
<stop stop-color="#FF006E"/>
<stop offset="1" stop-color="#FFBE0B"/>
</linearGradient>
<linearGradient id="paint19_linear_684_24354" x1="10.9559" y1="34.7684" x2="28.29" y2="24.86" gradientUnits="userSpaceOnUse">
<stop stop-color="#FF006E"/>
<stop offset="1" stop-color="#FFBE0B"/>
</linearGradient>
<linearGradient id="paint20_linear_684_24354" x1="3.51077" y1="34.0597" x2="18.5531" y2="23.578" gradientUnits="userSpaceOnUse">
<stop stop-color="#FF006E"/>
<stop offset="1" stop-color="#FFBE0B"/>
</linearGradient>
<clipPath id="clip0_684_24354">
<rect width="37" height="36" fill="white" transform="translate(0.5)"/>
</clipPath>
</defs>
</svg>
