<svg width="121" height="122" viewBox="0 0 121 122" fill="none" xmlns="http://www.w3.org/2000/svg">
<path d="M93.069 121.197H27.9315C12.519 121.197 0.0314941 108.653 0.0314941 93.2409V51.5596C0.0314941 43.9096 4.75649 34.2909 10.8315 29.5659L41.1502 5.94087C50.2628 -1.14663 64.8315 -1.48413 74.2815 5.15337L109.044 29.5096C115.738 34.1784 120.969 44.1909 120.969 52.3471V93.2971C120.969 108.653 108.482 121.197 93.069 121.197ZM46.3252 12.5784L16.0065 36.2034C12.0127 39.3534 8.469 46.4971 8.469 51.5596V93.2409C8.469 103.985 17.1877 112.76 27.9315 112.76H93.069C103.813 112.76 112.532 104.041 112.532 93.2971V52.3471C112.532 46.9471 108.65 39.4659 104.207 36.4284L69.444 12.0721C63.0315 7.57212 52.4565 7.79712 46.3252 12.5784Z" fill="white"/>
</svg>
