<svg width="205" height="204" viewBox="0 0 205 204" fill="none" xmlns="http://www.w3.org/2000/svg">
<g clip-path="url(#clip0_684_24386)">
<path fill-rule="evenodd" clip-rule="evenodd" d="M120.237 139.723C140.516 140.675 161.174 137.73 176.375 126.331C181.958 122.143 186.076 116.576 190.344 110.93C190.719 110.434 190.621 109.731 190.126 109.366C189.633 109 188.925 109.104 188.552 109.599C184.414 115.074 180.445 120.493 175.035 124.549C160.064 135.778 139.65 138.494 119.681 137.457C119.641 137.288 119.603 137.117 119.565 136.947C118.728 133.198 115.256 129.131 110.567 125.505C103.76 120.239 94.4319 115.832 87.6293 114.422C84.4914 113.77 81.8496 113.778 80.1362 114.499C78.708 115.098 77.8101 116.141 77.566 117.669C77.3673 118.93 77.6118 120.227 78.2539 121.527C79.1116 123.262 80.7015 125.028 82.7935 126.724C90.5341 133.001 105.217 138.469 111.732 139.104C113.772 139.303 115.824 139.468 117.887 139.594C118.152 140.657 118.401 141.674 118.547 142.665C118.762 144.12 118.752 145.506 118.138 146.882C117.004 149.424 114.798 151.106 112.185 152.251C108.002 154.086 102.786 154.551 98.7909 154.654C76.3198 155.233 57.7822 143.533 42.9693 129.443C27.9875 115.195 16.8046 98.4805 9.24116 89.2225C8.85102 88.7471 8.14123 88.6782 7.65876 89.0715C7.17474 89.4622 7.0982 90.1685 7.48639 90.6451C15.0919 99.9533 26.3448 116.746 41.4025 131.068C56.6292 145.549 75.7253 157.484 98.8241 156.89C103.074 156.778 108.62 156.247 113.073 154.296C116.219 152.914 118.827 150.83 120.191 147.77C120.987 145.987 121.05 144.193 120.774 142.316C120.649 141.474 120.455 140.61 120.237 139.723ZM117.337 137.318C116.529 133.992 113.324 130.487 109.172 127.276C102.632 122.215 93.6804 117.966 87.1439 116.61C84.9537 116.157 83.0556 116.021 81.6552 116.347C80.6425 116.58 79.9344 117.069 79.7888 117.991C79.6208 119.052 79.9816 120.135 80.6751 121.23C81.4727 122.493 82.7085 123.754 84.2303 124.986C91.6538 131.006 105.731 136.27 111.976 136.878C113.754 137.051 115.543 137.198 117.337 137.318Z" fill="#B9F250"/>
<path fill-rule="evenodd" clip-rule="evenodd" d="M190.101 107.038C190.305 107.511 190.428 108.197 190.535 108.932C190.778 110.594 190.835 112.494 190.894 113.393C190.937 114.008 191.473 114.469 192.093 114.42C192.714 114.371 193.181 113.831 193.14 113.215C193.066 112.117 192.988 109.6 192.611 107.708C192.417 106.737 192.125 105.913 191.769 105.409C191.417 104.917 190.991 104.703 190.538 104.645C190.06 104.584 189.475 104.736 188.831 105.164C188.125 105.633 187.238 106.497 186.16 107.28C185.256 107.938 184.203 108.551 182.972 108.67C182.353 108.729 181.892 109.275 181.946 109.89C181.998 110.503 182.542 110.955 183.16 110.894C185.469 110.674 187.355 109.239 188.798 108.031C189.228 107.67 189.785 107.262 190.101 107.038Z" fill="#B9F250"/>
</g>
<defs>
<clipPath id="clip0_684_24386">
<rect width="149" height="147" fill="white" transform="translate(0 78.6079) rotate(-31.8414)"/>
</clipPath>
</defs>
</svg>
