<svg width="122" height="127" viewBox="0 0 122 127" fill="none" xmlns="http://www.w3.org/2000/svg">
<path fill-rule="evenodd" clip-rule="evenodd" d="M1.53736 3.71818C62.6626 12.4437 92.353 66.0316 99.1039 121.975C99.2217 122.935 100.114 123.626 101.098 123.511C102.081 123.396 102.787 122.524 102.67 121.563C95.733 64.0529 64.8917 9.21649 2.05382 0.247536C1.07516 0.105873 0.164474 0.769958 0.0194877 1.73061C-0.125498 2.68682 0.554168 3.57652 1.53736 3.71818Z" fill="#B9F250"/>
<path fill-rule="evenodd" clip-rule="evenodd" d="M100.761 120.719C98.8984 118.231 96.5967 115.083 96.3249 114.734C88.9578 105.256 80.4806 97.4023 70.5355 90.4874C69.729 89.9252 68.6054 90.1112 68.03 90.8992C67.4545 91.6872 67.6449 92.785 68.4514 93.3472C78.0975 100.05 86.3209 107.664 93.466 116.859C93.8828 117.394 99.0525 124.473 100.208 125.828C100.679 126.385 101.123 126.558 101.232 126.589C101.803 126.775 102.251 126.664 102.577 126.514C102.944 126.341 103.479 125.912 103.751 125.079C104.032 124.207 104.159 122.268 104.231 121.781C105.346 114.437 105.935 106.145 108.073 98.5975C110.112 91.3993 113.565 84.8697 120.483 80.6818C121.326 80.1727 121.584 79.0881 121.063 78.2647C120.542 77.4413 119.432 77.1889 118.589 77.698C110.855 82.3816 106.891 89.6154 104.612 97.6591C102.487 105.163 101.843 113.379 100.761 120.719Z" fill="#B9F250"/>
</svg>
