<svg width="48" height="49" viewBox="0 0 48 49" fill="none" xmlns="http://www.w3.org/2000/svg">
<path d="M44 40.6589V37.0589C44 34.0589 42.72 32.8589 39.54 32.8589H31.46C28.28 32.8589 27 34.0589 27 37.0589V40.6589C27 43.6589 28.28 44.8589 31.46 44.8589H39.54C42.72 44.8589 44 43.6589 44 40.6589Z" stroke="#005A83" stroke-width="3" stroke-linecap="round" stroke-linejoin="round"/>
<path d="M21 27.0589V40.6589C21 43.6589 19.72 44.8589 16.54 44.8589H8.46C5.28 44.8589 4 43.6589 4 40.6589V27.0589C4 24.0589 5.28 22.8589 8.46 22.8589H16.54C19.72 22.8589 21 24.0589 21 27.0589Z" stroke="#005A83" stroke-width="3" stroke-linecap="round" stroke-linejoin="round"/>
<path d="M44 22.6589V9.05889C44 6.05889 42.72 4.85889 39.54 4.85889H31.46C28.28 4.85889 27 6.05889 27 9.05889V22.6589C27 25.6589 28.28 26.8589 31.46 26.8589H39.54C42.72 26.8589 44 25.6589 44 22.6589Z" stroke="#005A83" stroke-width="3" stroke-linecap="round" stroke-linejoin="round"/>
<path d="M21 9.05889V12.6589C21 15.6589 19.72 16.8589 16.54 16.8589H8.46C5.28 16.8589 4 15.6589 4 12.6589V9.05889C4 6.05889 5.28 4.85889 8.46 4.85889H16.54C19.72 4.85889 21 6.05889 21 9.05889Z" stroke="#005A83" stroke-width="3" stroke-linecap="round" stroke-linejoin="round"/>
</svg>
