<svg width="46" height="47" viewBox="0 0 46 47" fill="none" xmlns="http://www.w3.org/2000/svg">
<path d="M23 14.028C26.1807 14.028 26.6145 14.028 27.9157 14.028C29.0723 14.028 29.6506 14.3172 30.0843 14.4618C30.6627 14.7509 31.0964 14.8955 31.5301 15.3293C31.9639 15.763 32.253 16.1967 32.3976 16.775C32.5422 17.2088 32.6867 17.7871 32.8313 18.9437C32.8313 20.2449 32.8313 20.5341 32.8313 23.8594C32.8313 27.1847 32.8313 27.4738 32.8313 28.775C32.8313 29.9317 32.5422 30.51 32.3976 30.9437C32.1084 31.522 31.9639 31.9558 31.5301 32.3895C31.0964 32.8232 30.6627 33.1124 30.0843 33.257C29.6506 33.4015 29.0723 33.5461 27.9157 33.6907C26.6145 33.6907 26.3253 33.6907 23 33.6907C19.6747 33.6907 19.3855 33.6907 18.0843 33.6907C16.9277 33.6907 16.3494 33.4015 15.9157 33.257C15.3374 32.9678 14.9036 32.8232 14.4699 32.3895C14.0361 31.9558 13.747 31.522 13.6024 30.9437C13.4578 30.51 13.3133 29.9317 13.1687 28.775C13.1687 27.4738 13.1687 27.1847 13.1687 23.8594C13.1687 20.5341 13.1687 20.2449 13.1687 18.9437C13.1687 17.7871 13.4578 17.2088 13.6024 16.775C13.8916 16.1967 14.0361 15.763 14.4699 15.3293C14.9036 14.8955 15.3374 14.6064 15.9157 14.4618C16.3494 14.3172 16.9277 14.1726 18.0843 14.028C19.3855 14.028 19.8193 14.028 23 14.028ZM23 11.8594C19.6747 11.8594 19.3855 11.8594 18.0843 11.8594C16.7831 11.8594 15.9157 12.1485 15.1928 12.4377C14.4699 12.7268 13.747 13.1606 13.0241 13.8835C12.3012 14.6064 12.012 15.1847 11.5783 16.0521C11.2892 16.775 11.1446 17.6425 11 18.9437C11 20.2449 11 20.6787 11 23.8594C11 27.1847 11 27.4738 11 28.775C11 30.0762 11.2892 30.9437 11.5783 31.6666C11.8675 32.3895 12.3012 33.1124 13.0241 33.8353C13.747 34.5582 14.3253 34.8473 15.1928 35.2811C15.9157 35.5702 16.7831 35.7148 18.0843 35.8594C19.3855 35.8594 19.8193 35.8594 23 35.8594C26.1807 35.8594 26.6145 35.8594 27.9157 35.8594C29.2169 35.8594 30.0843 35.5702 30.8072 35.2811C31.5301 34.9919 32.253 34.5582 32.9759 33.8353C33.6988 33.1124 33.988 32.5341 34.4217 31.6666C34.7108 30.9437 34.8554 30.0762 35 28.775C35 27.4738 35 27.0401 35 23.8594C35 20.6787 35 20.2449 35 18.9437C35 17.6425 34.7108 16.775 34.4217 16.0521C34.1325 15.3293 33.6988 14.6064 32.9759 13.8835C32.253 13.1606 31.6747 12.8714 30.8072 12.4377C30.0843 12.1485 29.2169 12.004 27.9157 11.8594C26.6145 11.8594 26.3253 11.8594 23 11.8594Z" fill="#005A83"/>
<path d="M23 17.6425C19.5301 17.6425 16.7831 20.3895 16.7831 23.8594C16.7831 27.3293 19.5301 30.0762 23 30.0762C26.4699 30.0762 29.2169 27.3293 29.2169 23.8594C29.2169 20.3895 26.4699 17.6425 23 17.6425ZM23 27.9076C20.8313 27.9076 18.9518 26.1726 18.9518 23.8594C18.9518 21.6907 20.6867 19.8112 23 19.8112C25.1687 19.8112 27.0482 21.5461 27.0482 23.8594C27.0482 26.0281 25.1687 27.9076 23 27.9076Z" fill="#005A83"/>
<path d="M29.3614 18.9437C30.1599 18.9437 30.8072 18.2964 30.8072 17.4979C30.8072 16.6994 30.1599 16.0521 29.3614 16.0521C28.563 16.0521 27.9157 16.6994 27.9157 17.4979C27.9157 18.2964 28.563 18.9437 29.3614 18.9437Z" fill="#005A83"/>
</svg>
