<svg width="24" height="25" viewBox="0 0 24 25" fill="none" xmlns="http://www.w3.org/2000/svg">
<path d="M12 3.02805C15.1807 3.02805 15.6145 3.02805 16.9157 3.02805C18.0723 3.02805 18.6506 3.31721 19.0843 3.46179C19.6627 3.75094 20.0964 3.89552 20.5301 4.32926C20.9639 4.76299 21.253 5.19673 21.3976 5.77504C21.5422 6.20877 21.6867 6.78709 21.8313 7.94371C21.8313 9.24492 21.8313 9.53407 21.8313 12.8594C21.8313 16.1847 21.8313 16.4738 21.8313 17.775C21.8313 18.9317 21.5422 19.51 21.3976 19.9437C21.1084 20.522 20.9639 20.9558 20.5301 21.3895C20.0964 21.8232 19.6627 22.1124 19.0843 22.257C18.6506 22.4015 18.0723 22.5461 16.9157 22.6907C15.6145 22.6907 15.3253 22.6907 12 22.6907C8.6747 22.6907 8.38554 22.6907 7.08434 22.6907C5.92771 22.6907 5.3494 22.4015 4.91566 22.257C4.33735 21.9678 3.90362 21.8232 3.46988 21.3895C3.03615 20.9558 2.74699 20.522 2.60241 19.9437C2.45783 19.51 2.31325 18.9317 2.16867 17.775C2.16867 16.4738 2.16867 16.1847 2.16867 12.8594C2.16867 9.53407 2.16867 9.24492 2.16867 7.94371C2.16867 6.78709 2.45783 6.20877 2.60241 5.77504C2.89157 5.19673 3.03615 4.76299 3.46988 4.32926C3.90362 3.89552 4.33735 3.60636 4.91566 3.46179C5.3494 3.31721 5.92771 3.17263 7.08434 3.02805C8.38554 3.02805 8.81928 3.02805 12 3.02805ZM12 0.859375C8.6747 0.859375 8.38554 0.859375 7.08434 0.859375C5.78313 0.859375 4.91566 1.14853 4.19277 1.43769C3.46988 1.72685 2.74699 2.16058 2.0241 2.88347C1.30121 3.60636 1.01205 4.18468 0.578314 5.05215C0.289157 5.77504 0.144578 6.64251 0 7.94371C0 9.24492 0 9.67865 0 12.8594C0 16.1847 0 16.4738 0 17.775C0 19.0762 0.289157 19.9437 0.578314 20.6666C0.867471 21.3895 1.30121 22.1124 2.0241 22.8353C2.74699 23.5582 3.3253 23.8473 4.19277 24.2811C4.91566 24.5702 5.78313 24.7148 7.08434 24.8594C8.38554 24.8594 8.81928 24.8594 12 24.8594C15.1807 24.8594 15.6145 24.8594 16.9157 24.8594C18.2169 24.8594 19.0843 24.5702 19.8072 24.2811C20.5301 23.9919 21.253 23.5582 21.9759 22.8353C22.6988 22.1124 22.988 21.5341 23.4217 20.6666C23.7108 19.9437 23.8554 19.0762 24 17.775C24 16.4738 24 16.0401 24 12.8594C24 9.67865 24 9.24492 24 7.94371C24 6.64251 23.7108 5.77504 23.4217 5.05215C23.1325 4.32926 22.6988 3.60636 21.9759 2.88347C21.253 2.16058 20.6747 1.87142 19.8072 1.43769C19.0843 1.14853 18.2169 1.00395 16.9157 0.859375C15.6145 0.859375 15.3253 0.859375 12 0.859375Z" fill="#005A83"/>
<path d="M12 6.64251C8.53012 6.64251 5.78313 9.3895 5.78313 12.8594C5.78313 16.3293 8.53012 19.0762 12 19.0762C15.4699 19.0762 18.2169 16.3293 18.2169 12.8594C18.2169 9.3895 15.4699 6.64251 12 6.64251ZM12 16.9076C9.83133 16.9076 7.95181 15.1726 7.95181 12.8594C7.95181 10.6907 9.68675 8.81118 12 8.81118C14.1687 8.81118 16.0482 10.5461 16.0482 12.8594C16.0482 15.0281 14.1687 16.9076 12 16.9076Z" fill="#005A83"/>
<path d="M18.3614 7.94371C19.1599 7.94371 19.8072 7.29641 19.8072 6.49793C19.8072 5.69945 19.1599 5.05215 18.3614 5.05215C17.563 5.05215 16.9157 5.69945 16.9157 6.49793C16.9157 7.29641 17.563 7.94371 18.3614 7.94371Z" fill="#005A83"/>
</svg>
