<svg width="27" height="38" viewBox="0 0 27 38" fill="none" xmlns="http://www.w3.org/2000/svg">
<path d="M24.9997 13.8222C25.0139 11.7265 24.4784 9.66504 23.4487 7.85194C22.4191 6.03883 20.9329 4.54016 19.1444 3.51151C17.3559 2.48285 15.3303 1.96171 13.2779 2.00219C11.2255 2.04267 9.22114 2.64329 7.47288 3.7417C5.72462 4.84012 4.29621 6.39627 3.33592 8.24863C2.37563 10.101 1.91848 12.182 2.01192 14.2756C2.10537 16.3693 2.746 18.3992 3.86732 20.1547C4.98864 21.9102 6.54976 23.3273 8.38862 24.2588V28.1726C8.38862 28.5186 8.52324 28.8504 8.76287 29.095C9.0025 29.3397 9.32751 29.4771 9.66639 29.4771H17.3331C17.6719 29.4771 17.997 29.3397 18.2366 29.095C18.4762 28.8504 18.6108 28.5186 18.6108 28.1726V24.2588C20.5211 23.298 22.131 21.8122 23.2596 19.9685C24.3882 18.1249 24.9908 15.9964 24.9997 13.8222V13.8222Z" stroke="url(#paint0_linear_684_24342)" stroke-width="3" stroke-linecap="round" stroke-linejoin="round"/>
<path d="M8.38867 36H18.6109" stroke="url(#paint1_linear_684_24342)" stroke-width="3" stroke-linecap="round" stroke-linejoin="round"/>
<defs>
<linearGradient id="paint0_linear_684_24342" x1="5.91496" y1="35.1333" x2="45.9679" y2="7.34262" gradientUnits="userSpaceOnUse">
<stop stop-color="#FF006E"/>
<stop offset="1" stop-color="#FFBE0B"/>
</linearGradient>
<linearGradient id="paint1_linear_684_24342" x1="10.1287" y1="37.2059" x2="10.4909" y2="34.1363" gradientUnits="userSpaceOnUse">
<stop stop-color="#FF006E"/>
<stop offset="1" stop-color="#FFBE0B"/>
</linearGradient>
</defs>
</svg>
