<svg width="135" height="136" viewBox="0 0 135 136" fill="none" xmlns="http://www.w3.org/2000/svg">
<path d="M51.5227 65.591C51.354 65.591 51.2415 65.591 51.0727 65.591C50.7915 65.5348 50.3977 65.5348 50.0602 65.591C33.7477 65.0848 21.429 52.2598 21.429 36.4535C21.429 20.366 34.5352 7.25977 50.6227 7.25977C66.7102 7.25977 79.8165 20.366 79.8165 36.4535C79.7602 52.2598 67.3852 65.0848 51.6915 65.591C51.6352 65.591 51.579 65.591 51.5227 65.591ZM50.6227 15.6973C39.204 15.6973 29.8665 25.0348 29.8665 36.4535C29.8665 47.7035 38.6415 56.7598 49.8352 57.1535C50.1727 57.0973 50.904 57.0973 51.6352 57.1535C62.6602 56.6473 71.3227 47.591 71.379 36.4535C71.379 25.0348 62.0415 15.6973 50.6227 15.6973Z" fill="#005A83"/>
<path d="M93.0358 66.3223C92.8671 66.3223 92.6983 66.3223 92.5296 66.266C90.2233 66.491 87.8608 64.8598 87.6358 62.5535C87.4108 60.2473 88.8171 58.166 91.1233 57.8848C91.7983 57.8285 92.5296 57.8285 93.1483 57.8285C101.361 57.3785 107.773 50.6285 107.773 42.3598C107.773 33.8098 100.855 26.891 92.3046 26.891C89.9983 26.9473 88.0858 25.0348 88.0858 22.7285C88.0858 20.4223 89.9983 18.5098 92.3046 18.5098C105.467 18.5098 116.211 29.2535 116.211 42.416C116.211 55.3535 106.086 65.816 93.2046 66.3223C93.1483 66.3223 93.0921 66.3223 93.0358 66.3223Z" fill="#005A83"/>
<path d="M51.5793 127.072C40.5543 127.072 29.473 124.26 21.0918 118.635C13.273 113.46 8.99805 106.372 8.99805 98.666C8.99805 90.9598 13.273 83.816 21.0918 78.5848C37.9668 67.391 65.3043 67.391 82.0668 78.5848C89.8293 83.7598 94.1605 90.8473 94.1605 98.5535C94.1605 106.26 89.8855 113.404 82.0668 118.635C73.6293 124.26 62.6043 127.072 51.5793 127.072ZM25.7605 85.6723C20.3605 89.2723 17.4355 93.8848 17.4355 98.7223C17.4355 103.504 20.4168 108.116 25.7605 111.66C39.7668 121.054 63.3918 121.054 77.398 111.66C82.798 108.06 85.723 103.447 85.723 98.6098C85.723 93.8285 82.7418 89.216 77.398 85.6723C63.3918 76.3348 39.7668 76.3348 25.7605 85.6723Z" fill="#005A83"/>
<path d="M103.161 116.947C101.192 116.947 99.4482 115.597 99.0545 113.572C98.6045 111.266 100.067 109.072 102.317 108.566C105.861 107.835 109.123 106.429 111.654 104.46C114.861 102.041 116.604 99.0036 116.604 95.7974C116.604 92.5911 114.861 89.5536 111.711 87.1911C109.236 85.2786 106.142 83.9286 102.486 83.0849C100.236 82.5786 98.7732 80.3286 99.2795 78.0224C99.7857 75.7724 102.036 74.3099 104.342 74.8161C109.179 75.8849 113.398 77.7974 116.829 80.4411C122.061 84.3786 125.042 89.9474 125.042 95.7974C125.042 101.647 122.004 107.216 116.773 111.21C113.286 113.91 108.898 115.879 104.061 116.835C103.723 116.947 103.442 116.947 103.161 116.947Z" fill="#005A83"/>
</svg>
