<svg width="48" height="49" viewBox="0 0 48 49" fill="none" xmlns="http://www.w3.org/2000/svg">
<path d="M17 38.8589H16C8 38.8589 4 36.8589 4 26.8589V16.8589C4 8.85889 8 4.85889 16 4.85889H32C40 4.85889 44 8.85889 44 16.8589V26.8589C44 34.8589 40 38.8589 32 38.8589H31C30.38 38.8589 29.78 39.1589 29.4 39.6589L26.4 43.6589C25.08 45.4189 22.92 45.4189 21.6 43.6589L18.6 39.6589C18.28 39.2189 17.54 38.8589 17 38.8589Z" stroke="#005A83" stroke-width="3" stroke-miterlimit="10" stroke-linecap="round" stroke-linejoin="round"/>
<path d="M31.9929 22.8589H32.0109" stroke="#005A83" stroke-width="3" stroke-linecap="round" stroke-linejoin="round"/>
<path d="M23.991 22.8589H24.0089" stroke="#005A83" stroke-width="3" stroke-linecap="round" stroke-linejoin="round"/>
<path d="M15.989 22.8589H16.007" stroke="#005A83" stroke-width="3" stroke-linecap="round" stroke-linejoin="round"/>
</svg>
