<svg width="135" height="136" viewBox="0 0 135 136" fill="none" xmlns="http://www.w3.org/2000/svg">
<path d="M67.5002 124.428C65.8127 124.428 64.1252 124.035 62.719 123.247C52.2002 117.51 33.694 111.435 22.1065 109.916L20.4752 109.691C13.1065 108.791 7.03149 101.872 7.03149 94.391V26.441C7.03149 21.9972 8.77524 17.9472 11.9815 15.0222C15.1877 12.0972 19.3502 10.691 23.7377 11.0847C36.1127 12.041 54.7877 18.2285 65.3627 24.866L66.7127 25.6535C67.1065 25.8785 67.9503 25.8785 68.2878 25.7097L69.1878 25.1472C79.7627 18.5097 98.4377 12.2097 110.869 11.141C110.981 11.141 111.432 11.141 111.544 11.141C115.65 10.7472 119.869 12.2097 123.019 15.1347C126.225 18.0597 127.969 22.1097 127.969 26.5535V94.4472C127.969 101.985 121.894 108.847 114.469 109.747L112.613 109.972C101.025 111.491 82.4628 117.622 72.169 123.303C70.819 124.091 69.1877 124.428 67.5002 124.428ZM22.3877 19.466C20.5877 19.466 18.9565 20.0847 17.6627 21.266C16.2565 22.5597 15.469 24.416 15.469 26.441V94.391C15.469 97.7097 18.3377 100.916 21.544 101.366L23.2315 101.591C35.8877 103.278 55.294 109.635 66.544 115.766C67.0502 115.991 67.7815 116.047 68.0628 115.935C79.3128 109.691 98.8315 103.278 111.544 101.591L113.457 101.366C116.663 100.972 119.532 97.7097 119.532 94.391V26.4972C119.532 24.416 118.744 22.616 117.338 21.266C115.875 19.9722 114.019 19.3535 111.938 19.466C111.825 19.466 111.375 19.466 111.263 19.466C100.519 20.4222 83.194 26.216 73.744 32.1222L72.844 32.741C69.7502 34.6535 65.3628 34.6535 62.3815 32.7972L61.0315 32.0097C51.4128 26.1035 34.0877 20.366 23.0627 19.466C22.8377 19.466 22.6127 19.466 22.3877 19.466Z" fill="white"/>
<path d="M67.5 119.703C65.1938 119.703 63.2812 117.791 63.2812 115.485V31.1096C63.2812 28.8034 65.1938 26.8909 67.5 26.8909C69.8063 26.8909 71.7188 28.8034 71.7188 31.1096V115.485C71.7188 117.847 69.8063 119.703 67.5 119.703Z" fill="white"/>
<path d="M43.5935 52.2034H30.9373C28.631 52.2034 26.7185 50.2909 26.7185 47.9846C26.7185 45.6784 28.631 43.7659 30.9373 43.7659H43.5935C45.8998 43.7659 47.8123 45.6784 47.8123 47.9846C47.8123 50.2909 45.8998 52.2034 43.5935 52.2034Z" fill="white"/>
<path d="M47.8123 69.0784H30.9373C28.631 69.0784 26.7185 67.1659 26.7185 64.8596C26.7185 62.5534 28.631 60.6409 30.9373 60.6409H47.8123C50.1185 60.6409 52.031 62.5534 52.031 64.8596C52.031 67.1659 50.1185 69.0784 47.8123 69.0784Z" fill="white"/>
</svg>
