<svg width="214" height="259" viewBox="0 0 214 259" fill="none" xmlns="http://www.w3.org/2000/svg">
<path fill-rule="evenodd" clip-rule="evenodd" d="M126.763 124.426C129.62 117.949 130.824 112.275 131.463 107.853C137.404 65.5485 102.811 42.3652 66.0367 31.7335C56.1852 28.8796 40.0919 27.7483 27.9467 32.0392C19.4112 35.0509 12.7933 40.6745 11.1388 49.9574C9.29638 60.0706 14.3727 70.6368 22.5698 80.1683C34.4142 93.9633 52.7259 105.637 64.2319 110.707C77.5052 116.55 98.9756 123.411 120.784 127.432C117.137 134.181 111.61 141.653 103.036 149.366C99.2388 152.807 94.0123 155.749 88.0713 158.115C83.5967 149.655 77.2045 141.679 68.8946 134.641C61.9008 128.735 44.8297 119.02 29.714 116.038C18.9225 113.918 9.14612 115.283 3.95715 122.873C-2.47267 132.307 -0.216739 141.101 6.06267 148.456C14.899 158.817 32.0077 166.179 42.1224 167.995C53.8916 170.101 71.3385 168.147 85.9654 163.086C99.5394 192.446 89.6504 226.982 57.8397 245.976C56.8997 246.551 56.5989 247.777 57.1629 248.715C57.7646 249.652 59.043 249.945 59.983 249.37C93.6362 229.266 104.164 192.728 89.8382 161.643C96.1552 159.11 101.758 155.963 105.819 152.289C115.257 143.787 121.198 135.552 124.995 128.173C129.094 128.858 133.193 129.433 137.254 129.873C155.49 131.859 172.599 131.038 183.841 125.325C209.824 112.127 217.043 85.9804 212.118 60.4576C207.229 35.1805 190.422 10.6093 168.651 0.203827C167.635 -0.280546 166.395 0.128046 165.906 1.1151C165.417 2.10252 165.831 3.29716 166.846 3.78117C187.564 13.6825 203.469 37.14 208.094 61.1921C212.682 84.9989 206.177 109.482 181.961 121.792C171.245 127.215 155.039 127.799 137.705 125.913C134.095 125.521 130.448 125.018 126.763 124.426ZM84.198 159.554C79.9491 151.667 73.9707 144.225 66.1872 137.65C59.5318 132.027 43.3256 122.783 28.8867 119.944C19.9376 118.183 11.6653 118.775 7.37872 125.078C2.11454 132.765 4.10755 139.919 9.22133 145.912C17.4184 155.573 33.4365 162.383 42.8745 164.076C53.9292 166.061 70.3984 164.277 84.198 159.554ZM122.627 123.715C125.56 117.289 126.763 111.665 127.402 107.313C133.042 67.2026 99.7276 45.6335 64.8712 35.5532C55.6965 32.8912 40.6936 31.7826 29.338 35.785C22.2314 38.3024 16.5535 42.8891 15.1623 50.6483C13.5078 59.71 18.3584 69.0698 25.6906 77.6106C37.1214 90.9237 54.8316 102.184 65.924 107.076C79.1972 112.92 100.78 119.796 122.627 123.715Z" fill="#B9F250"/>
<path fill-rule="evenodd" clip-rule="evenodd" d="M60.4046 246.552C61.1567 244.655 63.2999 239.189 63.6007 238.354C64.428 236.011 64.5032 234.723 64.428 233.405C64.3528 232.346 64.1272 231.259 64.24 229.267C64.3152 228.169 63.4127 227.235 62.2847 227.18C61.1567 227.126 60.2166 227.975 60.1413 229.073C60.0661 230.878 60.1791 232.024 60.2919 233.027C60.4047 234.184 60.4423 235.085 59.7279 237.058C59.3895 238.021 56.9077 243.18 56.2685 245.743C55.9301 247.079 56.118 248.082 56.3812 248.522C56.7572 249.151 57.4343 249.744 58.4871 250.151C59.8408 250.667 62.0968 250.967 64.616 251.359C66.9849 251.721 69.6545 252.183 71.9857 253.157C73.941 253.988 75.6332 255.189 76.4604 257.188C76.8741 258.209 78.0397 258.714 79.0925 258.312C80.1454 257.909 80.6716 256.748 80.258 255.727C79.0548 252.703 76.5734 250.759 73.6029 249.503C70.9708 248.393 67.9626 247.833 65.2553 247.423C63.6385 247.171 62.1343 246.977 60.9686 246.717C60.7806 246.676 60.5926 246.614 60.4046 246.552Z" fill="#B9F250"/>
</svg>
