<svg width="135" height="136" viewBox="0 0 135 136" fill="none" xmlns="http://www.w3.org/2000/svg">
<path d="M67.5568 95.8537C62.7755 95.8537 57.938 94.6162 54.1693 92.1975L20.3068 70.0912C14.0068 65.985 10.238 59.0662 10.238 51.5287C10.238 43.9912 14.0068 37.0725 20.3068 32.9662L54.2255 10.9162C61.763 6.02249 73.5193 6.02249 81.0005 10.9725L114.694 33.0787C120.938 37.185 124.707 44.1037 124.707 51.585C124.707 59.0662 120.938 65.985 114.694 70.0912L81.0005 92.1975C77.2318 94.6725 72.3943 95.8537 67.5568 95.8537ZM67.5568 15.6975C64.3505 15.6975 61.1443 16.4287 58.838 18.0037L24.9755 40.0537C21.038 42.6412 18.7318 46.8037 18.7318 51.5287C18.7318 56.2537 20.9818 60.4162 24.9755 63.0037L58.838 85.11C63.5068 88.1475 71.7193 88.1475 76.388 85.11L110.082 63.0037C114.019 60.4162 116.269 56.2537 116.269 51.5287C116.269 46.8037 114.019 42.6412 110.082 40.0537L76.388 17.9475C74.0255 16.485 70.8193 15.6975 67.5568 15.6975Z" fill="#0F4868"/>
<path d="M67.4997 128.198C65.0247 128.198 62.4934 127.86 60.4684 127.185L42.5247 121.223C34.0309 118.41 27.3372 109.129 27.3934 100.185L27.4497 73.804C27.4497 71.4977 29.3622 69.5852 31.6684 69.5852C33.9747 69.5852 35.8872 71.4977 35.8872 73.804L35.8309 100.185C35.8309 105.473 40.2184 111.548 45.2247 113.235L63.1684 119.198C65.4184 119.929 69.5809 119.929 71.8309 119.198L89.7747 113.235C94.7809 111.548 99.1684 105.473 99.1684 100.241V74.1415C99.1684 71.8352 101.081 69.9227 103.387 69.9227C105.693 69.9227 107.606 71.8352 107.606 74.1415V100.241C107.606 109.185 100.968 118.41 92.4747 121.279L74.5309 127.241C72.5059 127.86 69.9747 128.198 67.4997 128.198Z" fill="#0F4868"/>
<path d="M120.375 88.8223C118.069 88.8223 116.156 86.9098 116.156 84.6035V50.8535C116.156 48.5473 118.069 46.6348 120.375 46.6348C122.681 46.6348 124.594 48.5473 124.594 50.8535V84.6035C124.594 86.9098 122.681 88.8223 120.375 88.8223Z" fill="#0F4868"/>
</svg>
