<svg width="46" height="45" viewBox="0 0 46 45" fill="none" xmlns="http://www.w3.org/2000/svg">
<path d="M12.6499 21.4693C19.0923 18.6469 23.3883 16.7862 25.5378 15.8871C31.675 13.3203 32.9503 12.8744 33.7815 12.8595C33.9643 12.8564 34.3731 12.902 34.6379 13.118C34.8614 13.3005 34.9229 13.5469 34.9524 13.7198C34.9818 13.8928 35.0185 14.2868 34.9893 14.5946C34.6567 18.1085 33.2177 26.6356 32.4856 30.5712C32.1758 32.2365 31.5658 32.7948 30.9753 32.8495C29.6919 32.9682 28.7174 31.9966 27.4744 31.1773C25.5294 29.8952 24.4305 29.0971 22.5425 27.8461C20.3606 26.4003 21.7751 25.6056 23.0185 24.3069C23.344 23.9671 28.9985 18.7953 29.1079 18.3262C29.1216 18.2675 29.1343 18.0488 29.0051 17.9333C28.8759 17.8178 28.6851 17.8573 28.5475 17.8887C28.3524 17.9332 25.2452 19.9984 19.2258 24.0842C18.3439 24.6932 17.545 24.9899 16.8292 24.9743C16.0402 24.9572 14.5223 24.5257 13.394 24.1569C12.01 23.7045 10.91 23.4653 11.0058 22.6971C11.0557 22.2969 11.6037 21.8877 12.6499 21.4693Z" fill="#005A83"/>
</svg>
