<svg width="24" height="21" viewBox="0 0 24 21" fill="none" xmlns="http://www.w3.org/2000/svg">
<path d="M1.64987 9.46933C8.09231 6.64688 12.3883 4.78616 14.5378 3.88715C20.675 1.32029 21.9503 0.874398 22.7815 0.859518C22.9643 0.856436 23.3731 0.901995 23.6379 1.11804C23.8614 1.30046 23.9229 1.54688 23.9524 1.71984C23.9818 1.89279 24.0185 2.28679 23.9893 2.59465C23.6567 6.10848 22.2177 14.6356 21.4856 18.5712C21.1758 20.2365 20.5658 20.7948 19.9753 20.8495C18.6919 20.9682 17.7174 19.9966 16.4744 19.1773C14.5294 17.8952 13.4305 17.0971 11.5425 15.8461C9.36064 14.4003 10.7751 13.6056 12.0185 12.3069C12.344 11.9671 17.9985 6.79532 18.1079 6.32616C18.1216 6.26749 18.1343 6.04877 18.0051 5.93328C17.8759 5.81779 17.6851 5.85728 17.5475 5.88869C17.3524 5.93321 14.2452 7.99837 8.22584 12.0842C7.34386 12.6932 6.54499 12.9899 5.82924 12.9743C5.04017 12.9572 3.52233 12.5257 2.39397 12.1569C1.00999 11.7045 -0.0899675 11.4653 0.00581422 10.6971C0.0557033 10.2969 0.603724 9.88765 1.64987 9.46933Z" fill="#005A83"/>
</svg>
