<svg width="304" height="22" viewBox="0 0 304 22" fill="none" xmlns="http://www.w3.org/2000/svg">
<path fill-rule="evenodd" clip-rule="evenodd" d="M100.465 1.93514C67.0472 1.4812 33.4928 3.14015 1.1468 10.1061C0.569696 10.2299 0.330119 10.4734 0.282902 10.5291C0.00658944 10.8593 -0.0231916 11.21 0.0117846 11.4989C0.0327704 11.6743 0.174486 12.415 0.949209 12.4914C1.48434 12.543 5.2827 12.1819 6.74821 12.089C13.6473 11.6537 20.5324 11.0326 27.414 10.3145C43.0169 8.69271 58.5987 7.28962 74.2261 6.01239C82.9999 5.29433 91.7772 4.70006 100.549 4.2131C121.652 4.50403 142.703 5.63891 163.36 6.81091C155.149 7.40723 80.4816 5.62034 74.2261 6.01239C63.6773 6.67267 120.271 9.84407 109.743 10.8716C104.334 11.3978 98.9315 11.9694 93.5329 12.6441C92.9349 12.7204 91.5725 12.7988 90.9132 12.8917C90.6334 12.9288 90.4306 12.9887 90.3397 13.03C89.7695 13.2899 89.6979 13.8223 89.6909 14.0905C89.6874 14.2535 89.7346 15.1428 90.6964 15.3162C135.419 23.45 182.077 13.9874 226.96 21.8942C227.487 21.9871 227.98 21.5579 228.059 20.9348C228.137 20.3137 227.773 19.7318 227.245 19.6389C184.973 12.1922 141.125 20.1548 98.7987 14.3092C102.497 13.8862 106.198 13.5045 109.902 13.1434C120.41 12.1179 130.921 11.34 141.452 10.6798C152.05 10.0174 166.376 8.72366 181.372 7.90862C194.242 8.75461 207.104 9.70376 219.975 10.5085C225.406 10.8469 230.837 11.1275 236.266 11.4721C238.497 11.6124 244.238 12.2005 245.071 11.9817C245.718 11.8105 245.874 11.2637 245.912 10.9893C245.952 10.6921 245.928 10.3228 245.634 9.96994C245.543 9.85852 245.27 9.62743 244.711 9.4376C229.575 4.32247 204.791 4.40294 181.579 5.6389C176.586 5.30876 171.593 4.99513 166.598 4.71245C155.165 4.06248 143.605 3.41044 131.979 2.89666C164.743 1.94131 197.523 2.21575 230.311 2.90699C244.078 3.19792 281.186 4.95181 295.8 6.50141C295.622 6.71806 295.517 7.01931 295.529 7.34739C295.554 7.97466 296.007 8.46162 296.54 8.43273C299.555 8.26766 301.299 8.05719 301.99 7.84054C302.42 7.70642 302.654 7.49183 302.762 7.35152C303.028 7.01312 303.077 6.64996 303.025 6.30537C302.992 6.09078 302.909 5.85556 302.721 5.6389C302.595 5.49034 302.287 5.26338 301.762 5.10862C296.017 3.42284 246.738 0.973587 230.346 0.626939C187.03 -0.285076 143.731 -0.470762 100.465 1.93514ZM232.994 8.98777C224.529 7.63213 214.607 7.15549 204.255 7.18644C209.528 7.54753 214.803 7.90038 220.079 8.23052C224.383 8.50082 228.688 8.73191 232.994 8.98777ZM60.5434 4.87959C49.4385 5.84525 38.3458 6.88932 27.2443 8.04481C25.9624 8.17687 24.6823 8.30686 23.4004 8.43479C35.6771 6.66029 48.0814 5.53162 60.5434 4.87959Z" fill="#FF9D00"/>
</svg>
