<svg width="48" height="49" viewBox="0 0 48 49" fill="none" xmlns="http://www.w3.org/2000/svg">
<g clip-path="url(#clip0_959_25448)">
<path d="M44 24.8589C44 35.9046 35.0457 44.8589 24 44.8589C12.9543 44.8589 4 35.9046 4 24.8589C4 13.8132 12.9543 4.85889 24 4.85889M16 28.8589C16 28.8589 19 32.8589 24 32.8589C29 32.8589 32 28.8589 32 28.8589M30 18.8589H30.02M16 18.8589H20M31 18.8589C31 19.4112 30.5523 19.8589 30 19.8589C29.4477 19.8589 29 19.4112 29 18.8589C29 18.3066 29.4477 17.8589 30 17.8589C30.5523 17.8589 31 18.3066 31 18.8589Z" stroke="white" stroke-width="3" stroke-linecap="round" stroke-linejoin="round"/>
<path d="M41 4.85889H47" stroke="white" stroke-width="3" stroke-linecap="round"/>
<path d="M44 7.85889V1.85889" stroke="white" stroke-width="3" stroke-linecap="round"/>
</g>
<defs>
<clipPath id="clip0_959_25448">
<rect width="48" height="48" fill="white" transform="translate(0 0.858887)"/>
</clipPath>
</defs>
</svg>
