<svg width="48" height="48" viewBox="0 0 48 48" fill="none" xmlns="http://www.w3.org/2000/svg">
<path d="M20.4395 26.0933C20.4395 24.5925 19.223 23.376 17.7222 23.376H14.8982C13.3974 23.376 12.1809 24.5925 12.1809 26.0933V45.0216C12.1809 46.5224 13.3974 47.7389 14.8982 47.7389H17.7222C19.223 47.7389 20.4395 46.5224 20.4395 45.0216V26.0933Z" fill="white"/>
<path d="M8.25863 32.7001C8.25863 31.0854 6.94964 29.7764 5.33487 29.7764H2.92376C1.30899 29.7764 0 31.0854 0 32.7001V44.8151C0 46.4299 1.30899 47.7389 2.92376 47.7389H5.33487C6.94964 47.7389 8.25863 46.4299 8.25863 44.8151V32.7001Z" fill="white"/>
<path d="M32.4149 18.8672C32.4149 17.3664 31.1984 16.1499 29.6976 16.1499H26.8735C25.3727 16.1499 24.1562 17.3664 24.1562 18.8672V45.0219C24.1562 46.5227 25.3727 47.7392 26.8735 47.7392H29.6976C31.1984 47.7392 32.4149 46.5227 32.4149 45.0219V18.8672Z" fill="#FF9D00"/>
<path d="M47.5603 8.4367L42.2628 1.64109C41.8055 1.05431 41.1551 0.717773 40.4785 0.717773C39.8019 0.717773 39.1516 1.05431 38.6942 1.64109L33.3967 8.4365C32.9423 9.01935 32.8308 9.65919 33.091 10.1917C33.3744 10.7722 34.0549 11.1187 34.9105 11.1187L36.3383 11.1226V45.099C36.3383 46.5974 37.5589 47.7389 39.0572 47.7389H41.9002C43.3986 47.7389 44.5969 46.5974 44.5969 45.099V11.0991L46.0335 11.1189C46.8909 11.1189 47.5774 10.7722 47.8609 10.1919C48.121 9.65919 48.0147 9.01956 47.5603 8.4367Z" fill="white"/>
</svg>
