<svg width="54" height="54" viewBox="0 0 54 54" fill="none" xmlns="http://www.w3.org/2000/svg">
<path d="M52.0812 24.2138C49.3434 23.5064 48.1743 19.3844 50.2356 17.354C50.7584 16.8619 50.8814 16.0929 50.5123 15.4776L48.9742 12.8321C48.6358 12.2168 47.8977 11.9091 47.2208 12.1244C44.4216 12.8935 41.3044 9.90969 42.1041 7.11026C42.3193 6.4336 42.0118 5.69532 41.3966 5.35694L38.7511 3.81885C38.1358 3.44951 37.3668 3.57266 36.8746 4.06485C34.7213 6.31056 30.6915 4.73135 30.0146 2.14746C29.8609 1.4706 29.2456 0.978516 28.5381 0.978516H25.462C24.7545 0.978516 24.1392 1.4706 23.9855 2.14746C23.2779 4.91592 19.125 6.12599 17.1255 4.06485C16.6334 3.57276 15.8644 3.44961 15.2491 3.81885L12.6035 5.35694C11.9883 5.69532 11.6807 6.4335 11.8961 7.11016C12.6957 9.90958 9.68117 12.9241 6.88195 12.1243C6.20509 11.9091 5.46681 12.2168 5.12843 12.8321L3.59034 15.4776C3.2212 16.0928 3.37501 16.8927 3.89785 17.3848C5.89747 19.3536 4.68751 23.5064 1.91885 24.2138C1.24209 24.3677 0.75 24.9829 0.75 25.6905V28.7667C0.75 29.4741 1.24209 30.0894 1.91895 30.2431C4.65675 30.9505 5.92834 35.0727 3.86709 37.1029C3.34424 37.5953 3.2213 38.3643 3.59034 38.9796L5.12843 41.6251C5.46681 42.2403 6.20499 42.5479 6.88185 42.3325C9.68107 41.5635 12.6957 44.5475 11.896 47.3467C11.6807 48.0235 11.9882 48.7618 12.6034 49.1001L15.249 50.6382C15.8642 50.9766 16.6332 50.8844 17.1254 50.392C19.125 48.3002 23.2778 49.5409 23.9854 52.3096C24.1392 52.9862 24.7544 53.4785 25.4619 53.4785H28.538C29.2455 53.4785 29.8608 52.9862 30.0145 52.3096C30.7221 49.5409 34.875 48.3002 36.8745 50.392C37.3666 50.8843 38.1356 51.0072 38.7509 50.6382L41.3965 49.1001C42.0117 48.7617 42.3193 48.0235 42.1039 47.3467C41.3043 44.5475 44.4214 41.5327 47.2206 42.3325C47.8974 42.5478 48.6357 42.2403 48.974 41.6251L50.5121 38.9796C50.8812 38.3643 50.7274 37.5644 50.2046 37.0723C48.205 35.1036 49.3124 30.9505 52.0811 30.2431C52.7579 30.0893 53.25 29.4741 53.25 28.7667V25.6905C53.2501 24.9829 52.758 24.3677 52.0812 24.2138ZM27.0001 44.1475C17.6791 44.1475 10.0811 36.5493 10.0811 27.2286C10.0811 17.9076 17.6791 10.3096 27.0001 10.3096C36.321 10.3096 44.0216 17.9076 44.0216 27.2286C44.0216 36.5493 36.321 44.1475 27.0001 44.1475Z" fill="white"/>
<path d="M36.2286 25.6904H34.5367C33.9214 22.6757 31.5527 20.3071 28.5381 19.6919V18C28.5381 17.1498 27.8502 16.4619 27 16.4619C26.1499 16.4619 25.4619 17.1498 25.4619 18V19.6919C22.4474 20.3071 20.0786 22.6757 19.4634 25.6904H17.7715C16.9213 25.6904 16.2334 26.3784 16.2334 27.2285C16.2334 28.0787 16.9213 28.7666 17.7715 28.7666H19.4634C20.0786 31.7812 22.4474 34.1499 25.4619 34.7652V36.4571C25.4619 37.3072 26.1499 37.9952 27 37.9952C27.8502 37.9952 28.5381 37.3072 28.5381 36.4571V34.7652C31.5527 34.1499 33.9214 31.7812 34.5367 28.7666H36.2286C37.0787 28.7666 37.7666 28.0787 37.7666 27.2285C37.7666 26.3784 37.0787 25.6904 36.2286 25.6904ZM27 28.7666C26.1386 28.7666 25.4619 28.0898 25.4619 27.2285C25.4619 26.3671 26.1386 25.6904 27 25.6904C27.8615 25.6904 28.5381 26.3671 28.5381 27.2285C28.5381 28.0898 27.8615 28.7666 27 28.7666Z" fill="#FF9D00"/>
</svg>
