<svg width="48" height="49" viewBox="0 0 48 49" fill="none" xmlns="http://www.w3.org/2000/svg">
<g clip-path="url(#clip0_914_26270)">
<path d="M24.0002 15.1742C27.4195 15.1742 30.2013 12.3923 30.2013 8.97307C30.2013 5.55382 27.4194 2.77197 24.0002 2.77197C20.5808 2.77197 17.7991 5.55382 17.7991 8.97307C17.7991 12.3923 20.5808 15.1742 24.0002 15.1742Z" fill="#FF9D00"/>
<path d="M13.9991 30.1103H33.9998C34.8265 30.1103 35.4967 29.4401 35.4967 28.6134C35.4967 22.2738 30.3391 17.1162 23.9995 17.1162C17.6599 17.1162 12.5022 22.2738 12.5022 28.6134C12.5022 29.4401 13.1724 30.1103 13.9991 30.1103Z" fill="white"/>
<path d="M30.0404 35.8562L26.7937 35.3843L25.3417 32.4424C24.7934 31.3313 23.205 31.3321 22.657 32.4424L21.205 35.3843L17.9583 35.8562C16.7323 36.0343 16.2421 37.5452 17.1287 38.4094L19.478 40.6994L18.9234 43.933C18.7139 45.1541 19.9993 46.0871 21.0953 45.511L23.9993 43.9844L26.9033 45.511C27.9903 46.0825 29.2862 45.1632 29.0752 43.933L28.5205 40.6994L30.8698 38.4094C31.7571 37.5445 31.2656 36.0342 30.0404 35.8562Z" fill="white"/>
<path d="M13.364 35.8561L10.1173 35.3843L8.66527 32.4423C8.11701 31.3315 6.52861 31.332 5.98064 32.4423L4.52873 35.3843L1.28198 35.8561C0.0560151 36.0342 -0.43411 37.5451 0.45239 38.4093L2.80167 40.6993L2.24705 43.933C2.03761 45.1541 3.32302 46.0871 4.41895 45.511L7.32295 43.9843L10.227 45.511C11.314 46.0825 12.6099 45.1632 12.3989 43.933L11.8442 40.6993L14.1936 38.4093C15.0808 37.5445 14.5892 36.0341 13.364 35.8561Z" fill="white"/>
<path d="M46.719 35.8558L43.4722 35.384L42.0203 32.442C41.5706 31.5307 40.5781 31.6076 40.678 31.6076C40.1083 31.6076 39.5879 31.9311 39.3357 32.442L37.8837 35.384L34.637 35.8558C33.411 36.034 32.9209 37.5448 33.8074 38.409L36.1568 40.6991L35.6022 43.9327C35.3928 45.1538 36.6781 46.0868 37.7741 45.5107L40.6781 43.984L43.5821 45.5107C44.6691 46.0822 45.965 45.1629 45.754 43.9327L45.1994 40.6991L47.5488 38.409C48.4356 37.5444 47.9444 36.0339 46.719 35.8558Z" fill="white"/>
</g>
<defs>
<clipPath id="clip0_914_26270">
<rect width="48" height="48" fill="white" transform="translate(0 0.228516)"/>
</clipPath>
</defs>
</svg>
